# xmcd CD database file
#
# Track frame offsets:
#	150
#	14495
#	36868
#	70404
#	96385
#	103721
#	125649
#	141138
#	144459
#	174031
#	197967
#	218729
#	227696
#
# Disc length: 3315 seconds
#
# Revision: 0
# Processed by: cddbd v1.5.2PL0 Copyright (c) Steve Scherf et al.
# Submitted via: CDex 1.70beta2
#
DISCID=be0cf10d
DTITLE=Vincent Artaud - Music from early times
DYEAR=2010
DGENRE=Jazz
TTITLE0=People of the Black
TTITLE1=Kingdom and History
TTITLE2=Rule of Circle
TTITLE3=The Crowning
TTITLE4=Wisdom and Wonderment
TTITLE5=Victoire
TTITLE6=Rule of beeline
TTITLE7=Rule of Diameter
TTITLE8=Pep^le of the White
TTITLE9=Die Folgerung
TTITLE10=Seed
TTITLE11=Kunst
TTITLE12=People of the Red
EXTD=YEAR: 2010
EXTT0=
EXTT1=
EXTT2=
EXTT3=
EXTT4=
EXTT5=
EXTT6=
EXTT7=
EXTT8=
EXTT9=
EXTT10=
EXTT11=
EXTT12=
PLAYORDER=
